<svg width="64" height="64" viewBox="0 0 64 64" fill="none" xmlns="http://www.w3.org/2000/svg">
<path d="M30.0053 21.5413V29.168L27.312 28.2347C25.952 27.7547 25.1253 27.3013 25.1253 24.9813C25.1253 23.088 26.5387 21.5413 28.272 21.5413H30.0053ZM38.88 39.0107C38.88 40.904 37.4667 42.4507 35.7333 42.4507H34V34.824L36.6933 35.7573C38.0533 36.2373 38.88 36.6907 38.88 39.0107Z" fill="#F9F9F9"/>
<path d="M43.1733 5.33333H20.8267C11.12 5.33333 5.33334 11.12 5.33334 20.8267V43.1733C5.33334 52.88 11.12 58.6667 20.8267 58.6667H43.1733C52.88 58.6667 58.6667 52.88 58.6667 43.1733V20.8267C58.6667 11.12 52.88 5.33333 43.1733 5.33333ZM38.0267 32C40.1067 32.72 42.88 34.24 42.88 39.0133C42.88 43.12 39.68 46.4533 35.7333 46.4533H34V48C34 49.0933 33.0933 50 32 50C30.9067 50 30 49.0933 30 48V46.4533H29.04C24.6667 46.4533 21.12 42.7467 21.12 38.2133C21.12 37.6829 21.3307 37.1742 21.7058 36.7991C22.0809 36.424 22.5896 36.2133 23.12 36.2133C23.6504 36.2133 24.1591 36.424 24.5342 36.7991C24.9093 37.1742 25.12 37.6829 25.12 38.2133C25.12 40.56 26.88 42.4533 29.04 42.4533H30V33.4133L25.9733 32C23.8933 31.28 21.12 29.76 21.12 24.9867C21.12 20.88 24.32 17.5467 28.2667 17.5467H30V16C30 14.9067 30.9067 14 32 14C33.0933 14 34 14.9067 34 16V17.5467H34.96C39.3333 17.5467 42.88 21.2533 42.88 25.7867C42.88 26.3171 42.6693 26.8258 42.2942 27.2009C41.9191 27.576 41.4104 27.7867 40.88 27.7867C40.3496 27.7867 39.8409 27.576 39.4658 27.2009C39.0907 26.8258 38.88 26.3171 38.88 25.7867C38.88 23.44 37.12 21.5467 34.96 21.5467H34V30.5867L38.0267 32Z" fill="#F9F9F9"/>
</svg>
