<svg width="64" height="64" viewBox="0 0 64 64" fill="none" xmlns="http://www.w3.org/2000/svg">
<path d="M23.1254 38.2133C23.1254 41.6533 25.7654 44.4267 29.0454 44.4267H35.7387C38.592 44.4267 40.912 42 40.912 39.0133C40.912 35.76 39.4987 34.6133 37.392 33.8667L26.6454 30.1333C24.5387 29.3867 23.1254 28.24 23.1254 24.9867C23.1254 22 25.4454 19.5733 28.2987 19.5733H34.992C38.272 19.5733 40.912 22.3467 40.912 25.7867M32 16V48" stroke="#F9F9F9" stroke-width="1.5" stroke-linecap="round" stroke-linejoin="round"/>
<path d="M40 58.6666H24C10.6666 58.6666 5.33331 53.3332 5.33331 39.9999V23.9999C5.33331 10.6666 10.6666 5.33325 24 5.33325H40C53.3333 5.33325 58.6666 10.6666 58.6666 23.9999V39.9999C58.6666 53.3332 53.3333 58.6666 40 58.6666Z" stroke="#F9F9F9" stroke-width="1.5" stroke-linecap="round" stroke-linejoin="round"/>
</svg>
