<svg width="64" height="64" viewBox="0 0 64 64" fill="none" xmlns="http://www.w3.org/2000/svg">
<path d="M48 8H16C10.1067 8 5.33334 12.7467 5.33334 18.5867V45.4133C5.33334 51.2533 10.1067 56 16 56H48C53.8933 56 58.6667 51.2533 58.6667 45.4133V18.5867C58.6667 12.7467 53.8933 8 48 8ZM22.6667 19.12C26.0533 19.12 28.8267 21.8933 28.8267 25.28C28.8267 28.6667 26.0533 31.44 22.6667 31.44C19.28 31.44 16.5067 28.6667 16.5067 25.28C16.5067 21.8933 19.28 19.12 22.6667 19.12ZM32.9867 44.4267C32.7467 44.6933 32.3733 44.8533 32 44.8533H13.3333C12.96 44.8533 12.5867 44.6933 12.3467 44.4267C12.2246 44.2892 12.1311 44.1288 12.0716 43.9548C12.012 43.7809 11.9877 43.5968 12 43.4133C12.2229 41.2384 13.1921 39.2078 14.7429 37.6667C16.2937 36.1257 18.3304 35.1692 20.5067 34.96C21.9347 34.8267 23.372 34.8267 24.8 34.96C29.28 35.3867 32.88 38.9333 33.3067 43.4133C33.36 43.7867 33.2267 44.16 32.9867 44.4267ZM50.6667 44.6667H45.3333C44.24 44.6667 43.3333 43.76 43.3333 42.6667C43.3333 41.5733 44.24 40.6667 45.3333 40.6667H50.6667C51.76 40.6667 52.6667 41.5733 52.6667 42.6667C52.6667 43.76 51.76 44.6667 50.6667 44.6667ZM50.6667 34H40C38.9067 34 38 33.0933 38 32C38 30.9067 38.9067 30 40 30H50.6667C51.76 30 52.6667 30.9067 52.6667 32C52.6667 33.0933 51.76 34 50.6667 34ZM50.6667 23.3333H37.3333C36.24 23.3333 35.3333 22.4267 35.3333 21.3333C35.3333 20.24 36.24 19.3333 37.3333 19.3333H50.6667C51.76 19.3333 52.6667 20.24 52.6667 21.3333C52.6667 22.4267 51.76 23.3333 50.6667 23.3333Z" fill="#F9F9F9"/>
</svg>
