<svg width="64" height="64" viewBox="0 0 64 64" fill="none" xmlns="http://www.w3.org/2000/svg">
<path d="M37.3333 21.3333H50.6666M40 32H50.6666M45.3333 42.6667H50.6666M45.3333 56H18.6666C7.99998 56 5.33331 53.3333 5.33331 42.6667V21.3333C5.33331 10.6667 7.99998 8 18.6666 8H45.3333C56 8 58.6666 10.6667 58.6666 21.3333V42.6667C58.6666 53.3333 56 56 45.3333 56Z" stroke="#F9F9F9" stroke-width="1.5" stroke-linecap="round" stroke-linejoin="round"/>
<path d="M32 43.5467C31.8205 41.6748 30.9916 39.9248 29.6571 38.6C28.3225 37.2752 26.5665 36.4591 24.6933 36.2934C23.3455 36.16 21.9878 36.16 20.64 36.2934C18.7687 36.4641 17.0154 37.2818 15.6818 38.6056C14.3483 39.9295 13.5178 41.6767 13.3333 43.5467M22.6666 30.1067C23.9468 30.1067 25.1744 29.5982 26.0796 28.693C26.9848 27.7878 27.4933 26.5601 27.4933 25.28C27.4933 23.9999 26.9848 22.7722 26.0796 21.8671C25.1744 20.9619 23.9468 20.4534 22.6666 20.4534C21.3865 20.4534 20.1589 20.9619 19.2537 21.8671C18.3485 22.7722 17.84 23.9999 17.84 25.28C17.84 26.5601 18.3485 27.7878 19.2537 28.693C20.1589 29.5982 21.3865 30.1067 22.6666 30.1067V30.1067Z" stroke="#F9F9F9" stroke-width="1.5" stroke-linecap="round" stroke-linejoin="round"/>
</svg>
