<svg width="64" height="64" viewBox="0 0 64 64" fill="none" xmlns="http://www.w3.org/2000/svg">
<path d="M44.8826 41.7067C45.2856 41.4413 45.753 41.2902 46.2351 41.2695C46.7171 41.2489 47.1957 41.3593 47.6199 41.5892C48.0441 41.8191 48.398 42.1598 48.6439 42.575C48.8897 42.9901 49.0183 43.4642 49.016 43.9467V47.3867C49.016 50.7733 46.376 54.4 43.2027 55.4667L34.696 58.2933C33.2027 58.8 30.776 58.8 29.3093 58.2933L20.8027 55.4667C17.6027 54.4 14.9893 50.7733 14.9893 47.3867V43.92C14.9893 41.8133 17.336 40.5333 19.096 41.68L24.5893 45.2533C26.696 46.6667 29.3627 47.36 32.0293 47.36C34.696 47.36 37.3627 46.6667 39.4693 45.2533L44.8826 41.7067Z" fill="#F9F9F9"/>
<path d="M53.28 17.224L37.3067 6.744C34.4267 4.85067 29.68 4.85067 26.8 6.744L10.7467 17.224C5.59999 20.5573 5.59999 28.104 10.7467 31.464L15.0133 34.2373L26.8 41.9173C29.68 43.8107 34.4267 43.8107 37.3067 41.9173L49.0133 34.2373L52.6667 31.8373V39.9973C52.6667 41.0907 53.5733 41.9973 54.6667 41.9973C55.76 41.9973 56.6667 41.0907 56.6667 39.9973V26.8773C57.7333 23.4373 56.64 19.4373 53.28 17.224Z" fill="#F9F9F9"/>
</svg>
