<svg width="64" height="64" viewBox="0 0 64 64" fill="none" xmlns="http://www.w3.org/2000/svg">
<path d="M38.2667 5.33333H25.7333C22.96 5.33333 20.6933 7.57333 20.6933 10.3467V12.8533C20.6933 15.6267 22.9333 17.8667 25.7067 17.8667H38.2667C41.04 17.8667 43.28 15.6267 43.28 12.8533V10.3467C43.3067 7.57333 41.04 5.33333 38.2667 5.33333Z" fill="black"/>
<path d="M45.9733 12.8533C45.9733 17.0933 42.5067 20.56 38.2667 20.56H25.7333C21.4933 20.56 18.0267 17.0933 18.0267 12.8533C18.0267 11.36 16.4267 10.4267 15.0933 11.12C13.1833 12.1371 11.5861 13.6548 10.4728 15.5103C9.35944 17.3659 8.77198 19.4894 8.77333 21.6533V46.7467C8.77333 53.3067 14.1333 58.6667 20.6933 58.6667H43.3067C49.8667 58.6667 55.2267 53.3067 55.2267 46.7467V21.6533C55.2267 17.0933 52.6667 13.12 48.9067 11.12C47.5733 10.4267 45.9733 11.36 45.9733 12.8533ZM40.9067 33.9467L30.24 44.6133C29.84 45.0133 29.3333 45.2 28.8267 45.2C28.32 45.2 27.8133 45.0133 27.4133 44.6133L23.4133 40.6133C23.0414 40.237 22.8328 39.7292 22.8328 39.2C22.8328 38.6709 23.0414 38.163 23.4133 37.7867C24.1867 37.0133 25.4667 37.0133 26.24 37.7867L28.8267 40.3733L38.08 31.12C38.8533 30.3467 40.1333 30.3467 40.9067 31.12C41.68 31.8933 41.68 33.1733 40.9067 33.9467Z" fill="black"/>
</svg>
