<svg width="64" height="64" viewBox="0 0 64 64" fill="none" xmlns="http://www.w3.org/2000/svg">
<path d="M21.008 32.1867C21.008 31.0933 21.9146 30.1867 23.008 30.1867H37.6213V7.62668C37.615 7.01579 37.3677 6.43211 36.9332 6.00263C36.4987 5.57315 35.9122 5.33261 35.3013 5.33335C19.5946 5.33335 8.63464 16.2933 8.63464 32C8.63464 47.7067 19.5946 58.6667 35.3013 58.6667C36.5546 58.6667 37.5946 57.6533 37.5946 56.3733V34.16H23.008C22.746 34.1657 22.4856 34.1188 22.2421 34.022C21.9986 33.9252 21.777 33.7805 21.5905 33.5964C21.404 33.4124 21.2563 33.1928 21.1563 32.9506C21.0562 32.7085 21.0058 32.4487 21.008 32.1867Z" fill="black"/>
<path d="M54.7787 30.7733L47.2053 23.1733C46.829 22.8014 46.3212 22.5928 45.792 22.5928C45.2629 22.5928 44.755 22.8014 44.3787 23.1733C43.6053 23.9467 43.6053 25.2267 44.3787 26L48.5387 30.16H37.6053V34.16H48.512L44.352 38.32C43.5787 39.0933 43.5787 40.3733 44.352 41.1467C44.752 41.5467 45.2587 41.7333 45.7653 41.7333C46.272 41.7333 46.7787 41.5467 47.1787 41.1467L54.752 33.5467C55.552 32.8 55.552 31.5467 54.7787 30.7733Z" fill="black"/>
</svg>
