<svg width="64" height="64" viewBox="0 0 64 64" fill="none" xmlns="http://www.w3.org/2000/svg">
<path d="M32 5.33334C25.0134 5.33334 19.3334 11.0133 19.3334 18C19.3334 24.8533 24.6934 30.4 31.68 30.64C31.8934 30.6133 32.1067 30.6133 32.2667 30.64H32.4534C35.7316 30.5306 38.8389 29.1506 41.1181 26.7918C43.3974 24.4329 44.6699 21.2801 44.6667 18C44.6667 11.0133 38.9867 5.33334 32 5.33334ZM45.5467 37.76C38.1067 32.8 25.9734 32.8 18.48 37.76C15.0934 40 13.2267 43.0667 13.2267 46.3467C13.2267 49.6267 15.0934 52.6667 18.4534 54.9067C22.1867 57.4133 27.0934 58.6667 32 58.6667C36.9067 58.6667 41.8134 57.4133 45.5467 54.9067C48.9067 52.64 50.7734 49.6 50.7734 46.2933C50.7467 43.04 48.9067 39.9733 45.5467 37.76ZM38.2134 44.16L31.4934 50.88C31.339 51.0333 31.1559 51.1546 30.9545 51.2369C30.7532 51.3193 30.5376 51.3611 30.32 51.36C29.8934 51.36 29.4667 51.1733 29.1467 50.88L25.7867 47.52C25.4792 47.2069 25.3069 46.7855 25.3069 46.3467C25.3069 45.9078 25.4792 45.4865 25.7867 45.1733C26.4267 44.5333 27.4934 44.5333 28.1334 45.1733L30.32 47.36L35.8667 41.8133C36.5067 41.1733 37.5734 41.1733 38.2134 41.8133C38.88 42.4533 38.88 43.52 38.2134 44.16Z" fill="black"/>
</svg>
