<svg width="64" height="64" viewBox="0 0 64 64" fill="none" xmlns="http://www.w3.org/2000/svg">
<path d="M33.8027 53.224C34.536 53.3947 34.6027 54.3547 33.888 54.592L29.6747 55.9787C19.088 59.392 13.5147 56.5387 10.0747 45.952L6.66134 35.4187C3.248 24.832 6.07467 19.232 16.6613 15.8187L18.0587 15.3547C19.1333 15 20.1787 16.0774 19.872 17.168C19.7227 17.7067 19.5787 18.272 19.4347 18.8587L16.8213 30.032C13.888 42.592 18.1813 49.5253 30.7413 52.512L33.8027 53.224Z" fill="black"/>
<path d="M45.7867 8.55736L41.3333 7.51736C32.4267 5.41069 27.12 7.14402 24 13.5974C23.2 15.224 22.56 17.1974 22.0267 19.464L19.4133 30.6374C16.8 41.784 20.24 47.2774 31.36 49.9174L35.84 50.984C37.3867 51.3574 38.8267 51.5974 40.16 51.704C48.48 52.504 52.9067 48.6107 55.1467 38.984L57.76 27.8374C60.3733 16.6907 56.96 11.1707 45.7867 8.55736ZM40.7733 35.544C40.5333 36.4507 39.7333 37.0374 38.8267 37.0374C38.6667 37.0374 38.5067 37.0107 38.32 36.984L30.56 35.0107C30.0788 34.852 29.6758 34.5166 29.4323 34.0723C29.1889 33.6279 29.1232 33.1077 29.2484 32.6168C29.3737 32.1259 29.6807 31.7008 30.1072 31.4274C30.5338 31.154 31.0483 31.0527 31.5467 31.144L39.3067 33.1174C40.4 33.384 41.04 34.4774 40.7733 35.544ZM48.5867 26.5307C48.3467 27.4374 47.5467 28.024 46.64 28.024C46.48 28.024 46.32 27.9974 46.1333 27.9707L33.2 24.6907C32.7188 24.532 32.3158 24.1966 32.0723 23.7523C31.8289 23.3079 31.7632 22.7877 31.8884 22.2968C32.0137 21.8059 32.3207 21.3808 32.7472 21.1074C33.1738 20.834 33.6883 20.7327 34.1867 20.824L47.12 24.104C48.2133 24.344 48.8533 25.4374 48.5867 26.5307Z" fill="black"/>
</svg>
