<svg width="64" height="64" viewBox="0 0 64 64" fill="none" xmlns="http://www.w3.org/2000/svg">
<path d="M44.6667 9.49334V5.33334C44.6667 4.24 43.76 3.33334 42.6667 3.33334C41.5733 3.33334 40.6667 4.24 40.6667 5.33334V9.33334H23.3333V5.33334C23.3333 4.24 22.4267 3.33334 21.3333 3.33334C20.24 3.33334 19.3333 4.24 19.3333 5.33334V9.49334C12.1333 10.16 8.64 14.4533 8.10667 20.8267C8.05333 21.6 8.69333 22.24 9.44 22.24H54.56C55.3333 22.24 55.9733 21.5733 55.8933 20.8267C55.36 14.4533 51.8667 10.16 44.6667 9.49334ZM53.3333 26.24H10.6667C9.2 26.24 8 27.44 8 28.9067V45.3333C8 53.3333 12 58.6667 21.3333 58.6667H42.6667C52 58.6667 56 53.3333 56 45.3333V28.9067C56 27.44 54.8 26.24 53.3333 26.24ZM24.56 48.56C24.4267 48.6667 24.2933 48.8 24.16 48.88C24 48.9867 23.84 49.0667 23.68 49.12C23.52 49.2 23.36 49.2533 23.2 49.28C23.0133 49.3067 22.8533 49.3333 22.6667 49.3333C22.32 49.3333 21.9733 49.2533 21.6533 49.12C21.3067 48.9867 21.04 48.8 20.7733 48.56C20.2933 48.0533 20 47.36 20 46.6667C20 45.9733 20.2933 45.28 20.7733 44.7733C21.04 44.5333 21.3067 44.3467 21.6533 44.2133C22.1333 44 22.6667 43.9467 23.2 44.0533C23.36 44.08 23.52 44.1333 23.68 44.2133C23.84 44.2667 24 44.3467 24.16 44.4533L24.56 44.7733C25.04 45.28 25.3333 45.9733 25.3333 46.6667C25.3333 47.36 25.04 48.0533 24.56 48.56ZM24.56 39.2267C24.0533 39.7067 23.36 40 22.6667 40C21.9733 40 21.28 39.7067 20.7733 39.2267C20.2933 38.72 20 38.0267 20 37.3333C20 36.64 20.2933 35.9467 20.7733 35.44C21.52 34.6933 22.6933 34.4533 23.68 34.88C24.0267 35.0133 24.32 35.2 24.56 35.44C25.04 35.9467 25.3333 36.64 25.3333 37.3333C25.3333 38.0267 25.04 38.72 24.56 39.2267ZM33.8933 48.56C33.3867 49.04 32.6933 49.3333 32 49.3333C31.3067 49.3333 30.6133 49.04 30.1067 48.56C29.6267 48.0533 29.3333 47.36 29.3333 46.6667C29.3333 45.9733 29.6267 45.28 30.1067 44.7733C31.0933 43.7867 32.9067 43.7867 33.8933 44.7733C34.3733 45.28 34.6667 45.9733 34.6667 46.6667C34.6667 47.36 34.3733 48.0533 33.8933 48.56ZM33.8933 39.2267L33.4933 39.5467C33.3333 39.6533 33.1733 39.7333 33.0133 39.7867C32.8533 39.8667 32.6933 39.92 32.5333 39.9467C32.3467 39.9733 32.1867 40 32 40C31.3067 40 30.6133 39.7067 30.1067 39.2267C29.6267 38.72 29.3333 38.0267 29.3333 37.3333C29.3333 36.64 29.6267 35.9467 30.1067 35.44C30.3467 35.2 30.64 35.0133 30.9867 34.88C31.9733 34.4533 33.1467 34.6933 33.8933 35.44C34.3733 35.9467 34.6667 36.64 34.6667 37.3333C34.6667 38.0267 34.3733 38.72 33.8933 39.2267ZM43.2267 48.56C42.72 49.04 42.0267 49.3333 41.3333 49.3333C40.64 49.3333 39.9467 49.04 39.44 48.56C38.96 48.0533 38.6667 47.36 38.6667 46.6667C38.6667 45.9733 38.96 45.28 39.44 44.7733C40.4267 43.7867 42.24 43.7867 43.2267 44.7733C43.7067 45.28 44 45.9733 44 46.6667C44 47.36 43.7067 48.0533 43.2267 48.56ZM43.2267 39.2267L42.8267 39.5467C42.6667 39.6533 42.5067 39.7333 42.3467 39.7867C42.1867 39.8667 42.0267 39.92 41.8667 39.9467C41.68 39.9733 41.4933 40 41.3333 40C40.64 40 39.9467 39.7067 39.44 39.2267C38.96 38.72 38.6667 38.0267 38.6667 37.3333C38.6667 36.64 38.96 35.9467 39.44 35.44C39.7067 35.2 39.9733 35.0133 40.32 34.88C40.8 34.6667 41.3333 34.6133 41.8667 34.72C42.0267 34.7467 42.1867 34.8 42.3467 34.88C42.5067 34.9333 42.6667 35.0133 42.8267 35.12L43.2267 35.44C43.7067 35.9467 44 36.64 44 37.3333C44 38.0267 43.7067 38.72 43.2267 39.2267Z" fill="black"/>
</svg>
