<svg width="64" height="64" viewBox="0 0 64 64" fill="none" xmlns="http://www.w3.org/2000/svg">
<path d="M32 5.33333C17.3067 5.33333 5.33334 17.3067 5.33334 32C5.33334 46.6933 17.3067 58.6667 32 58.6667C46.6933 58.6667 58.6667 46.6933 58.6667 32C58.6667 17.3067 46.6933 5.33333 32 5.33333ZM43.6 41.52C43.4665 41.7472 43.2891 41.9457 43.0783 42.1038C42.8674 42.262 42.6272 42.3766 42.3717 42.4411C42.1161 42.5056 41.8503 42.5187 41.5896 42.4796C41.329 42.4405 41.0787 42.35 40.8533 42.2133L32.5867 37.28C30.5333 36.0533 29.0133 33.36 29.0133 30.9867V20.0533C29.0133 18.96 29.92 18.0533 31.0133 18.0533C32.1067 18.0533 33.0133 18.96 33.0133 20.0533V30.9867C33.0133 31.9467 33.8133 33.36 34.64 33.84L42.9067 38.7733C43.8667 39.3333 44.1867 40.56 43.6 41.52Z" fill="black"/>
</svg>
