<svg width="64" height="64" viewBox="0 0 64 64" fill="none" xmlns="http://www.w3.org/2000/svg">
<path d="M22.1067 16.7733C20.9867 16.7733 20.1067 15.8666 20.1067 14.7733V7.33331C20.1067 6.80288 20.3174 6.29417 20.6924 5.9191C21.0675 5.54403 21.5762 5.33331 22.1067 5.33331C22.6371 5.33331 23.1458 5.54403 23.5209 5.9191C23.8959 6.29417 24.1067 6.80288 24.1067 7.33331V14.7466C24.1067 15.8666 23.2267 16.7733 22.1067 16.7733ZM41.8933 16.7733C40.7733 16.7733 39.8933 15.8666 39.8933 14.7733V7.33331C39.8933 6.80288 40.104 6.29417 40.4791 5.9191C40.8542 5.54403 41.3629 5.33331 41.8933 5.33331C42.4238 5.33331 42.9325 5.54403 43.3075 5.9191C43.6826 6.29417 43.8933 6.80288 43.8933 7.33331V14.7466C43.8933 15.8666 43.0133 16.7733 41.8933 16.7733Z" fill="black"/>
<path d="M52.1867 12C50.4267 10.6933 47.8933 11.9466 47.8933 14.16V14.4266C47.8933 17.5466 45.6533 20.4266 42.5333 20.7466C38.9333 21.12 35.8933 18.2933 35.8933 14.7733V12C35.8933 10.5333 34.6933 9.33331 33.2267 9.33331H30.7733C29.3067 9.33331 28.1067 10.5333 28.1067 12V14.7733C28.1067 16.88 27.0133 18.7466 25.36 19.7866C25.12 19.9466 24.8533 20.08 24.5867 20.2133C24.3467 20.3466 24.08 20.4533 23.7867 20.5333C23.4667 20.64 23.12 20.72 22.7467 20.7466C22.32 20.8 21.8933 20.8 21.4667 20.7466C21.0933 20.72 20.7467 20.64 20.4267 20.5333C19.8739 20.3491 19.3456 20.0984 18.8533 19.7866C17.1733 18.6133 16.1067 16.5866 16.1067 14.4266V14.16C16.1067 12.1066 13.92 10.88 12.1867 11.76C12.16 11.7866 12.1333 11.7866 12.1067 11.8133C12 11.8666 11.92 11.92 11.8133 12C11.7333 12.08 11.6267 12.1333 11.5467 12.2133C10.8 12.8 10.1333 13.4666 9.57333 14.1866C9.28 14.5066 9.04 14.8533 8.82666 15.2C8.55579 15.5899 8.31509 16 8.10666 16.4266C8.05333 16.48 8.02666 16.5066 8.02666 16.56C7.86666 16.88 7.70666 17.2 7.6 17.5466C7.52 17.68 7.49333 17.7866 7.44 17.92C7.28 18.32 7.17333 18.72 7.06666 19.12C6.96 19.4933 6.88 19.8933 6.82666 20.2933C6.72971 20.9647 6.67627 21.6417 6.66666 22.32V45.68C6.66666 49.1243 8.0349 52.4275 10.4704 54.8629C12.9058 57.2984 16.2091 58.6666 19.6533 58.6666H44.3467C46.0521 58.6666 47.7408 58.3307 49.3164 57.6781C50.8921 57.0255 52.3237 56.0689 53.5296 54.8629C54.7355 53.657 55.6921 52.2254 56.3448 50.6498C56.9974 49.0741 57.3333 47.3854 57.3333 45.68V22.32C57.3333 18.08 55.3067 14.3733 52.1867 12ZM32 46.4533H19.6267C19.0927 46.4533 18.5806 46.2412 18.203 45.8636C17.8254 45.486 17.6133 44.9739 17.6133 44.44C17.6133 43.906 17.8254 43.3939 18.203 43.0163C18.5806 42.6388 19.0927 42.4266 19.6267 42.4266H32C33.12 42.4266 34 43.3333 34 44.4533C34 45.5466 33.12 46.4533 32 46.4533ZM39.4133 36.56H19.6267C19.0927 36.56 18.5806 36.3479 18.203 35.9703C17.8254 35.5927 17.6133 35.0806 17.6133 34.5466C17.6133 34.0127 17.8254 33.5006 18.203 33.123C18.5806 32.7454 19.0927 32.5333 19.6267 32.5333H39.4133C40.5333 32.5333 41.44 33.44 41.44 34.56C41.44 35.6533 40.5333 36.56 39.4133 36.56Z" fill="black"/>
</svg>
