<svg width="64" height="64" viewBox="0 0 64 64" fill="none" xmlns="http://www.w3.org/2000/svg">
<path d="M24 5.33333C17.0133 5.33333 11.3333 11.0133 11.3333 18C11.3333 24.8533 16.6933 30.4 23.68 30.64C23.8933 30.6133 24.1067 30.6133 24.2667 30.64H24.4533C27.7316 30.5306 30.8389 29.1506 33.1181 26.7917C35.3973 24.4329 36.6699 21.2801 36.6667 18C36.6667 11.0133 30.9867 5.33333 24 5.33333ZM37.5467 37.7307C30.1067 32.7707 17.9733 32.7707 10.48 37.7307C7.09334 39.9973 5.22667 43.064 5.22667 46.344C5.22667 49.624 7.09334 52.664 10.4533 54.904C14.1867 57.4107 19.0933 58.664 24 58.664C28.9067 58.664 33.8133 57.4107 37.5467 54.904C40.9067 52.6373 42.7733 49.5973 42.7733 46.2907C42.7467 43.0107 40.9067 39.9707 37.5467 37.7307ZM53.3067 19.568C53.7333 24.7413 50.0533 29.2747 44.96 29.888H44.8267C44.6667 29.888 44.5067 29.888 44.3733 29.9413C41.7867 30.0747 39.4133 29.248 37.6267 27.728C40.3733 25.2747 41.9467 21.5947 41.6267 17.5947C41.4437 15.5147 40.7373 13.5148 39.5733 11.7813C40.9706 11.1015 42.5123 10.7719 44.0655 10.8209C45.6186 10.8698 47.1365 11.2959 48.4882 12.0623C49.8399 12.8287 50.9849 13.9124 51.8244 15.2201C52.6638 16.5277 53.1725 18.0199 53.3067 19.568Z" fill="black"/>
<path d="M58.6347 44.24C58.4213 46.8267 56.768 49.0667 53.9947 50.5867C51.328 52.0533 47.968 52.7467 44.6347 52.6667C46.5547 50.9333 47.6747 48.7733 47.888 46.48C48.1547 43.1733 46.5813 40 43.4347 37.4667C41.648 36.0533 39.568 34.9333 37.3013 34.1067C43.1947 32.4 50.608 33.5467 55.168 37.2267C57.6213 39.2 58.8747 41.68 58.6347 44.24Z" fill="black"/>
</svg>
