<svg width="64" height="64" viewBox="0 0 64 64" fill="none" xmlns="http://www.w3.org/2000/svg">
<path d="M58.6667 12.9333V44.64C58.6667 47.2267 56.56 49.6 53.9733 49.92L53.1467 50.0267C48.7733 50.6133 42.6133 52.4267 37.6533 54.5067C35.92 55.2267 34 53.92 34 52.0267V14.9333C34 13.9467 34.56 13.04 35.44 12.56C40.32 9.92 47.7067 7.57333 52.72 7.14667H52.88C56.08 7.14667 58.6667 9.73333 58.6667 12.9333ZM28.5547 12.56C23.6747 9.92 16.288 7.57333 11.2747 7.14667H11.088C7.888 7.14667 5.30133 9.73333 5.30133 12.9333V44.64C5.30133 47.2267 7.408 49.6 9.99466 49.92L10.8213 50.0267C15.1947 50.6133 21.3547 52.4267 26.3147 54.5067C28.048 55.2267 29.968 53.92 29.968 52.0267V14.9333C29.9716 14.4464 29.8417 13.9678 29.5926 13.5494C29.3434 13.131 28.9845 12.7889 28.5547 12.56ZM13.328 20.64H19.328C19.8584 20.64 20.3671 20.8507 20.7422 21.2258C21.1173 21.6009 21.328 22.1096 21.328 22.64C21.328 23.1704 21.1173 23.6791 20.7422 24.0542C20.3671 24.4293 19.8584 24.64 19.328 24.64H13.328C12.7976 24.64 12.2889 24.4293 11.9138 24.0542C11.5387 23.6791 11.328 23.1704 11.328 22.64C11.328 22.1096 11.5387 21.6009 11.9138 21.2258C12.2889 20.8507 12.7976 20.64 13.328 20.64ZM21.328 32.64H13.328C12.7976 32.64 12.2889 32.4293 11.9138 32.0542C11.5387 31.6791 11.328 31.1704 11.328 30.64C11.328 30.1096 11.5387 29.6009 11.9138 29.2258C12.2889 28.8507 12.7976 28.64 13.328 28.64H21.328C21.8584 28.64 22.3671 28.8507 22.7422 29.2258C23.1173 29.6009 23.328 30.1096 23.328 30.64C23.328 31.1704 23.1173 31.6791 22.7422 32.0542C22.3671 32.4293 21.8584 32.64 21.328 32.64Z" fill="black"/>
</svg>
