<svg width="64" height="64" viewBox="0 0 64 64" fill="none" xmlns="http://www.w3.org/2000/svg">
<path d="M22.1067 16.7733C20.9867 16.7733 20.1067 15.8667 20.1067 14.7733V7.33334C20.1067 6.80291 20.3174 6.2942 20.6924 5.91913C21.0675 5.54406 21.5762 5.33334 22.1067 5.33334C22.6371 5.33334 23.1458 5.54406 23.5209 5.91913C23.8959 6.2942 24.1067 6.80291 24.1067 7.33334V14.7467C24.1067 15.8667 23.2267 16.7733 22.1067 16.7733ZM41.8933 16.7733C40.7733 16.7733 39.8933 15.8667 39.8933 14.7733V7.33334C39.8933 6.80291 40.104 6.2942 40.4791 5.91913C40.8542 5.54406 41.3629 5.33334 41.8933 5.33334C42.4238 5.33334 42.9325 5.54406 43.3075 5.91913C43.6826 6.2942 43.8933 6.80291 43.8933 7.33334V14.7467C43.8933 15.8667 43.0133 16.7733 41.8933 16.7733Z" fill="black"/>
<path d="M52.1867 12C50.4267 10.6933 47.8933 11.9467 47.8933 14.16V14.4267C47.8933 17.5467 45.6533 20.4267 42.5333 20.7467C38.9333 21.12 35.8933 18.2933 35.8933 14.7733V12C35.8933 10.5333 34.6933 9.33334 33.2267 9.33334H30.7733C29.3067 9.33334 28.1067 10.5333 28.1067 12V14.7733C28.1067 16.88 27.0133 18.7467 25.36 19.7867C25.12 19.9467 24.8533 20.08 24.5867 20.2133C24.3467 20.3467 24.08 20.4533 23.7867 20.5333C23.4667 20.64 23.12 20.72 22.7467 20.7467C22.32 20.8 21.8933 20.8 21.4667 20.7467C21.0933 20.72 20.7467 20.64 20.4267 20.5333C19.8739 20.3492 19.3456 20.0984 18.8533 19.7867C17.1733 18.6133 16.1067 16.5867 16.1067 14.4267V14.16C16.1067 12.1067 13.92 10.88 12.1867 11.76C12.16 11.7867 12.1333 11.7867 12.1067 11.8133C12 11.8667 11.92 11.92 11.8133 12C11.7333 12.08 11.6267 12.1333 11.5467 12.2133C10.8 12.8 10.1333 13.4667 9.57333 14.1867C9.28 14.5067 9.04 14.8533 8.82666 15.2C8.55579 15.59 8.31509 16.0001 8.10666 16.4267C8.05333 16.48 8.02666 16.5067 8.02666 16.56C7.86666 16.88 7.70666 17.2 7.6 17.5467C7.52 17.68 7.49333 17.7867 7.44 17.92C7.28 18.32 7.17333 18.72 7.06666 19.12C6.96 19.4933 6.88 19.8933 6.82666 20.2933C6.72971 20.9647 6.67627 21.6417 6.66666 22.32V45.68C6.66666 49.1243 8.0349 52.4275 10.4704 54.863C12.9058 57.2984 16.2091 58.6667 19.6533 58.6667H44.3467C46.0521 58.6667 47.7408 58.3308 49.3164 57.6781C50.8921 57.0255 52.3237 56.0689 53.5296 54.863C54.7355 53.657 55.6921 52.2254 56.3448 50.6498C56.9974 49.0742 57.3333 47.3854 57.3333 45.68V22.32C57.3333 18.08 55.3067 14.3733 52.1867 12ZM32 43.3333H27.4933V48C27.4933 48.5304 27.2826 49.0392 26.9075 49.4142C26.5325 49.7893 26.0238 50 25.4933 50C24.9629 50 24.4542 49.7893 24.0791 49.4142C23.704 49.0392 23.4933 48.5304 23.4933 48V43.3333H18.6667C17.5733 43.3333 16.6667 42.4267 16.6667 41.3333C16.6667 40.24 17.5733 39.3333 18.6667 39.3333H23.4933V34.6667C23.4933 34.1362 23.704 33.6275 24.0791 33.2525C24.4542 32.8774 24.9629 32.6667 25.4933 32.6667C26.0238 32.6667 26.5325 32.8774 26.9075 33.2525C27.2826 33.6275 27.4933 34.1362 27.4933 34.6667V39.3333H32C33.0933 39.3333 34 40.24 34 41.3333C34 42.4267 33.0933 43.3333 32 43.3333Z" fill="black"/>
</svg>
