<svg width="64" height="64" viewBox="0 0 64 64" fill="none" xmlns="http://www.w3.org/2000/svg">
<path d="M49.8906 25.3067C49.624 25.3067 49.3573 25.2533 49.0906 25.1467C48.6063 24.9303 48.226 24.5326 48.0316 24.039C47.8371 23.5454 47.844 22.9953 48.0506 22.5067C48.5573 21.36 48.264 19.68 47.3306 18.2933C46.3973 16.88 44.984 15.92 43.704 16C42.5306 16 41.704 15.12 41.6773 14.0267C41.6773 12.9067 42.5573 12.0267 43.6506 12C46.3973 11.9467 48.984 13.52 50.664 16.0533C52.3706 18.6133 52.7706 21.68 51.7306 24.08C51.4106 24.8533 50.664 25.3067 49.8906 25.3067Z" fill="black"/>
<path d="M58.1867 27.9467C58 27.9467 57.84 27.92 57.6533 27.8667C57.4008 27.7973 57.1644 27.6787 56.9578 27.5177C56.7513 27.3567 56.5786 27.1564 56.4497 26.9284C56.3208 26.7004 56.2383 26.4492 56.2069 26.1891C56.1755 25.9291 56.1958 25.6655 56.2667 25.4133C57.28 21.7867 56.4267 17.4667 54 13.84C51.5733 10.2133 47.8933 7.78666 44.1333 7.33333C43.874 7.3023 43.6233 7.22037 43.3957 7.09223C43.1681 6.9641 42.968 6.79228 42.807 6.58664C42.646 6.381 42.5271 6.14558 42.4573 5.8939C42.3874 5.64221 42.368 5.37922 42.4 5.11999C42.5333 4.02666 43.5467 3.22666 44.6133 3.38666C49.4933 3.97333 54.24 7.06666 57.3067 11.6533C60.3733 16.24 61.4133 21.7867 60.1067 26.5333C59.8667 27.36 59.0667 27.9467 58.1867 27.9467ZM45.6507 31.4133C45.6507 32.2133 44.984 32.88 44.184 32.88H9.144C8.344 32.88 7.67734 32.2133 7.67734 31.4133C7.67734 30.6133 8.344 29.9467 9.144 29.9467H11.1173L11.864 26.4267C12.5573 23.0133 14.024 19.8933 19.8373 19.8933H33.5173C39.3307 19.8933 40.7707 23.04 41.4907 26.4267L42.2373 29.9467H44.2107C44.984 29.9467 45.6507 30.6133 45.6507 31.4133ZM46.48 42.432C46.1867 39.232 45.3333 35.792 39.0933 35.792H14.24C8 35.792 7.14667 39.232 6.85334 42.432L5.76 54.2987C5.62667 55.7653 6.10667 57.2587 7.12 58.3787C8.16 59.4987 9.6 60.1387 11.1733 60.1387H14.8267C17.9733 60.1387 18.5867 58.3253 18.9867 57.152L19.3867 55.9787C19.84 54.6453 19.9467 54.2987 21.7067 54.2987H31.68C33.44 54.2987 33.4933 54.4853 34 55.9787L34.4 57.152C34.8 58.352 35.3867 60.1387 38.56 60.1387H42.2133C43.76 60.1387 45.2267 59.4987 46.2667 58.3787C47.28 57.2587 47.76 55.792 47.6267 54.2987L46.48 42.432ZM20.8267 46.4853H14.9867C14.1867 46.4853 13.52 45.8187 13.52 45.0187C13.52 44.2187 14.1867 43.552 14.9867 43.552H20.8267C21.6267 43.552 22.2933 44.2187 22.2933 45.0187C22.2933 45.8187 21.6267 46.4853 20.8267 46.4853ZM38.3467 46.4853H32.5067C31.7067 46.4853 31.04 45.8187 31.04 45.0187C31.04 44.2187 31.7067 43.552 32.5067 43.552H38.3467C39.1467 43.552 39.8133 44.2187 39.8133 45.0187C39.8133 45.8187 39.1467 46.4853 38.3467 46.4853Z" fill="black"/>
</svg>
